<?xml version="1.0" encoding="UTF-8" standalone="no"?><!-- Generator: Gravit.io --><svg xmlns="http://www.w3.org/2000/svg" xmlns:xlink="http://www.w3.org/1999/xlink" style="isolation:isolate" viewBox="0 0 400 400"><defs><clipPath id="_clipPath_vfoI7oL15SJZ92UaVzpVDsash69V8efm"><rect width="400" height="400"/></clipPath></defs><g clip-path="url(#_clipPath_vfoI7oL15SJZ92UaVzpVDsash69V8efm)"><g><path d=" M 310.441 64.589 L 310.441 335.411 L 254.474 335.411 L 145.526 157.219 L 145.526 335.411 L 89.559 335.411 L 89.559 64.589 L 145.526 64.589 L 254.661 243.153 L 254.661 64.589 L 310.441 64.589 Z " fill="rgb(3,122,221)"/><path d=" M 361.875 15 L 385 15 L 385 138.303 L 361.875 138.303 L 361.875 15 Z " fill="rgb(3,122,221)"/><path d=" M 385 15 L 385 38.057 L 261.332 38.057 L 261.332 15 L 385 15 Z " fill="rgb(3,122,221)"/><path d=" M 38.124 384.107 L 15 383.902 L 16.101 260.604 L 39.225 260.809 L 38.124 384.107 Z " fill="rgb(3,122,221)"/><path d=" M 15 383.902 L 15.206 360.846 L 138.87 361.944 L 138.664 385 L 15 383.902 Z " fill="rgb(3,122,221)"/></g></g></svg>
