<?xml version="1.0" encoding="UTF-8" standalone="no"?>
<svg
   xmlns:dc="http://purl.org/dc/elements/1.1/"
   xmlns:cc="http://creativecommons.org/ns#"
   xmlns:rdf="http://www.w3.org/1999/02/22-rdf-syntax-ns#"
   xmlns:svg="http://www.w3.org/2000/svg"
   xmlns="http://www.w3.org/2000/svg"
   xmlns:xlink="http://www.w3.org/1999/xlink"
   xmlns:sodipodi="http://sodipodi.sourceforge.net/DTD/sodipodi-0.dtd"
   xmlns:inkscape="http://www.inkscape.org/namespaces/inkscape"
   id="0315a8ac-3017-4957-93c4-92e478eebb20"
   data-name="Layer 1"
   width="1036"
   height="612"
   viewBox="0 0 1036 612"
   version="1.1"
   sodipodi:docname="undraw_web_devices_ad58.svg"
   inkscape:version="0.92.4 (5da689c313, 2019-01-14)">
  <metadata
     id="metadata143">
    <rdf:RDF>
      <cc:Work
         rdf:about="">
        <dc:format>image/svg+xml</dc:format>
        <dc:type
           rdf:resource="http://purl.org/dc/dcmitype/StillImage" />
      </cc:Work>
    </rdf:RDF>
  </metadata>
  <sodipodi:namedview
     pagecolor="#ffffff"
     bordercolor="#666666"
     borderopacity="1"
     objecttolerance="10"
     gridtolerance="10"
     guidetolerance="10"
     inkscape:pageopacity="0"
     inkscape:pageshadow="2"
     inkscape:window-width="2560"
     inkscape:window-height="1377"
     id="namedview141"
     showgrid="false"
     inkscape:zoom="1.3513513"
     inkscape:cx="600.1137"
     inkscape:cy="194.02247"
     inkscape:window-x="-8"
     inkscape:window-y="-8"
     inkscape:window-maximized="1"
     inkscape:current-layer="0315a8ac-3017-4957-93c4-92e478eebb20" />
  <defs
     id="defs12">
    <linearGradient
       id="deacd444-d5db-4c24-9492-02e57292be3c"
       x1="675.05"
       y1="606.02"
       x2="675.05"
       y2="240.27"
       gradientUnits="userSpaceOnUse">
      <stop
         offset="0"
         stop-color="gray"
         stop-opacity="0.25"
         id="stop2" />
      <stop
         offset="0.54"
         stop-color="gray"
         stop-opacity="0.12"
         id="stop4" />
      <stop
         offset="1"
         stop-color="gray"
         stop-opacity="0.1"
         id="stop6" />
    </linearGradient>
    <linearGradient
       id="a1de9c2c-a914-4f57-a703-6b671b828453"
       x1="473.94"
       y1="635.65"
       x2="473.94"
       y2="301.65"
       xlink:href="#deacd444-d5db-4c24-9492-02e57292be3c" />
    <linearGradient
       id="33ead0d0-8f65-4117-bca2-44ecb419ecb0"
       x1="363.44"
       y1="662.65"
       x2="363.44"
       y2="401.65"
       xlink:href="#deacd444-d5db-4c24-9492-02e57292be3c" />
    <linearGradient
       id="9a5964b5-9011-4675-8f60-8033350848c0"
       x1="849.68"
       y1="703.66"
       x2="849.68"
       y2="385.5"
       xlink:href="#deacd444-d5db-4c24-9492-02e57292be3c" />
  </defs>
  <title
     id="title14">web_devices</title>
  <path
     d="M233.4,144.07c-8.06-.23-16.32,0-23.88,2.32-20.57,6.32-30.32,27-27.15,44.87s16.21,33.44,29.74,47.67,28.19,28.3,35.61,45.31c3.7,8.49,5.43,18,1.67,26.48-5.8,13.07-23.29,20.37-40.08,21.89s-33.65-1.44-50.5-2.43c-7.07-.41-14.34-.46-21,1.45-7.31,2.08-13.4,6.33-19,10.76-21.85,17.38-39.34,41.09-36.51,66,3.2,28.23,31.74,50.54,63,62.51,10.35,4,21.3,7.18,30.41,12.84,24,14.93,29.39,42.93,27,67.64s-10.53,49.45-6,73.94c5.33,28.49,28.92,54.23,60.74,66.25,28.35,10.71,63.83,10,89-5.11,12.27-7.38,21.55-17.63,29.62-28.23a227.74,227.74,0,0,0,29.45-51c3.51-8.49,6.81-17.62,15-23.52,5-3.63,11.48-5.66,17.89-7.24,19.32-4.76,39.67-6.06,59.17-10.3S536.7,554,547.3,539.9c15-20,8-45.62,8.07-69.14.12-53.66,39.11-101.69,53.5-154,4.7-17.09,6.45-36-4.05-51.25-7.13-10.35-19.16-17.82-31.8-23.59-27.81-12.69-59.42-18.34-90.51-23.84-43.21-7.64-95.68-8.63-129.17-33.35C321.2,161,277.23,144.07,233.4,144.07Z"
     transform="translate(-82 -144)"
     fill="#037add"
     opacity="0.2"
     id="path16" />
  <ellipse
     cx="571"
     cy="487.48"
     rx="465"
     ry="124.52"
     fill="#f5f5f5"
     id="ellipse18" />
  <path
     d="M1039.18,330.86s-35.83,35.83-15.6,89S988.9,561.45,988.9,561.45s.59-.09,1.68-.28c73.59-13,110.16-97.16,69.24-159.69C1044.61,378.24,1032.12,351,1039.18,330.86Z"
     transform="translate(-82 -144)"
     fill="#037add"
     id="path20" />
  <path
     d="M1039.18,330.86s-20.23,43.92,0,79.75S1042.65,547,988.9,561.45"
     transform="translate(-82 -144)"
     fill="none"
     stroke="#535461"
     stroke-miterlimit="10"
     stroke-width="2"
     id="path22" />
  <path
     d="M1103,475.79s-40.89-6.51-44.61,30.13-78.62,41.72-78.62,41.72l1.4.93c61.84,40.59,121,25.86,112-28C1089.9,500.49,1090.17,480.36,1103,475.79Z"
     transform="translate(-82 -144)"
     fill="#037add"
     id="path24" />
  <path
     d="M1103,475.79s-40.89-6.51-44.61,30.13-78.62,41.72-78.62,41.72l1.4.93c61.84,40.59,121,25.86,112-28C1089.9,500.49,1090.17,480.36,1103,475.79Z"
     transform="translate(-82 -144)"
     fill="#f5f5f5"
     opacity="0.2"
     id="path26" />
  <path
     d="M1103,475.79s-31.74,7-29.13,35.82-47.13,63.45-94.1,36"
     transform="translate(-82 -144)"
     fill="none"
     stroke="#535461"
     stroke-miterlimit="10"
     stroke-width="2"
     id="path28" />
  <path
     d="M1008.37,563.92H944.13a21.42,21.42,0,0,0,2.24-9.57V261.79a21.51,21.51,0,0,0-21.51-21.51H427.52A21.51,21.51,0,0,0,406,261.79V554.36a21.42,21.42,0,0,0,2.24,9.57H341.73a5.69,5.69,0,0,0-5.69,5.69v4.59A31.82,31.82,0,0,0,367.86,606H982.24a31.82,31.82,0,0,0,31.82-31.82v-4.59A5.69,5.69,0,0,0,1008.37,563.92Zm-395.89,18.2L607,575.87H743.72l-6.1,6.26Z"
     transform="translate(-82 -144)"
     fill="url(#deacd444-d5db-4c24-9492-02e57292be3c)"
     id="path30" />
  <rect
     x="330.11"
     y="100.42"
     width="528.12"
     height="327.99"
     rx="23.26"
     ry="23.26"
     fill="#535461"
     id="rect32" />
  <rect
     x="341.22"
     y="148.23"
     width="504.77"
     height="267.95"
     fill="#fff"
     id="rect34" />
  <circle
     cx="593.61"
     cy="124.88"
     r="4.45"
     fill="#fff"
     id="circle36" />
  <path
     d="M753.55,560.73,736.2,578.52H613.9l-15.67-17.79H349.29a5.56,5.56,0,0,0-5.56,5.56v4.48a31.1,31.1,0,0,0,31.1,31.1H975.28a31.1,31.1,0,0,0,31.1-31.1v-4.48a5.56,5.56,0,0,0-5.56-5.56Z"
     transform="translate(-82 -144)"
     fill="#535461"
     id="path38" />
  <path
     d="M580.41,301.65H367.48a19.51,19.51,0,0,0-19.53,19.48v295a19.51,19.51,0,0,0,19.53,19.48H580.41a19.51,19.51,0,0,0,19.53-19.48v-295A19.51,19.51,0,0,0,580.41,301.65Z"
     transform="translate(-82 -144)"
     fill="url(#a1de9c2c-a914-4f57-a703-6b671b828453)"
     id="path40" />
  <rect
     x="268.94"
     y="161.65"
     width="246"
     height="327"
     rx="20"
     ry="20"
     fill="#535461"
     id="rect42" />
  <rect
     x="281.44"
     y="192.58"
     width="221"
     height="265.14"
     fill="#fff"
     id="rect44" />
  <circle
     cx="390.94"
     cy="176.65"
     r="3"
     fill="#fff"
     id="circle46" />
  <circle
     cx="390.94"
     cy="472.65"
     r="9"
     fill="#fff"
     id="circle48" />
  <path
     d="M418.11,401.65H308.78a10.81,10.81,0,0,0-10.83,10.79V651.86a10.81,10.81,0,0,0,10.83,10.79H418.11a10.81,10.81,0,0,0,10.83-10.79V412.44A10.81,10.81,0,0,0,418.11,401.65Z"
     transform="translate(-82 -144)"
     fill="url(#33ead0d0-8f65-4117-bca2-44ecb419ecb0)"
     id="path50" />
  <rect
     x="216.94"
     y="259.65"
     width="129"
     height="258"
     rx="11"
     ry="11"
     fill="#535461"
     id="rect52" />
  <rect
     x="226.44"
     y="283.65"
     width="110"
     height="210"
     fill="#fff"
     id="rect54" />
  <circle
     cx="268.44"
     cy="271.65"
     r="1"
     fill="#fff"
     id="circle56" />
  <rect
     x="273.44"
     y="270.65"
     width="22"
     height="2"
     rx="1"
     ry="1"
     fill="#fff"
     id="rect58" />
  <circle
     cx="280.94"
     cy="503.65"
     r="7"
     fill="#fff"
     id="circle60" />
  <path
     d="M285.73,680.25s-13.26-45,2.49-78.14A71.09,71.09,0,0,0,294,557.5a119.57,119.57,0,0,0-6.31-20.93"
     transform="translate(-82 -144)"
     fill="none"
     stroke="#535461"
     stroke-miterlimit="10"
     stroke-width="2"
     id="path62" />
  <path
     d="M297.45,515.63c0,5.52-10,21.51-10,21.51s-10-16-10-21.51a10,10,0,0,1,20,0Z"
     transform="translate(-82 -144)"
     fill="#037add"
     id="path64" />
  <path
     d="M314,546.19c-3,4.63-20.08,12.63-20.08,12.63s.31-18.86,3.31-23.49A10,10,0,1,1,314,546.19Z"
     transform="translate(-82 -144)"
     fill="#037add"
     id="path66" />
  <path
     d="M313.24,598.4c-4.93,2.48-23.71.77-23.71.77s9.79-16.12,14.71-18.6a10,10,0,0,1,9,17.84Z"
     transform="translate(-82 -144)"
     fill="#037add"
     id="path68" />
  <path
     d="M303.8,637.79c-4.44,3.28-23.24,4.76-23.24,4.76s6.92-17.54,11.36-20.82a10,10,0,0,1,11.88,16.06Z"
     transform="translate(-82 -144)"
     fill="#037add"
     id="path70" />
  <path
     d="M272.91,559.89c4,3.84,22.39,7.83,22.39,7.83s-4.51-18.31-8.47-22.15a10,10,0,1,0-13.92,14.33Z"
     transform="translate(-82 -144)"
     fill="#037add"
     id="path72" />
  <path
     d="M262.45,606.09c4.93,2.48,23.71.77,23.71.77s-9.79-16.12-14.71-18.6a10,10,0,1,0-9,17.84Z"
     transform="translate(-82 -144)"
     fill="#037add"
     id="path74" />
  <path
     d="M258.45,652.39c4.44,3.28,23.24,4.76,23.24,4.76s-6.92-17.54-11.36-20.82a10,10,0,0,0-11.88,16.06Z"
     transform="translate(-82 -144)"
     fill="#037add"
     id="path76" />
  <path
     d="M798.54,680c0,.09-.06.2-.09.28a29.28,29.28,0,0,0-1.57,5.29c.24-.78.52-1.58.84-2.38A14.52,14.52,0,0,0,798.54,680Z"
     transform="translate(-82 -144)"
     fill="#dddbe2"
     id="path128" />
  <path
     d="M703.44,686.41c-.53.14-1.05.85-1.54,1.82l.16-.06c.44-.12,1.19-1,2.1-2.3A1.94,1.94,0,0,1,703.44,686.41Z"
     transform="translate(-82 -144)"
     fill="#dddbe2"
     id="path134" />
</svg>
