<?xml version="1.0" standalone="no"?>
<!DOCTYPE svg PUBLIC "-//W3C//DTD SVG 20010904//EN"
 "http://www.w3.org/TR/2001/REC-SVG-20010904/DTD/svg10.dtd">
<svg version="1.0" xmlns="http://www.w3.org/2000/svg"
 width="700.000000pt" height="700.000000pt" viewBox="0 0 700.000000 700.000000"
 preserveAspectRatio="xMidYMid meet">
<metadata>
Created by potrace 1.11, written by Peter Selinger 2001-2013
</metadata>
<g transform="translate(0.000000,700.000000) scale(0.100000,-0.100000)"
fill="#000000" stroke="none">
<path d="M4573 6535 l0 -201 871 1 c479 0 876 -1 881 -2 7 -2 10 -302 9 -878
l-2 -875 202 0 203 0 1 1079 1 1080 -1083 -1 -1082 -2 -1 -201z"/>
<path d="M1569 5823 c-1 -65 -1 -4597 0 -4651 l1 -42 488 2 487 3 0 1552 c0
1180 3 1549 12 1540 6 -7 192 -309 414 -672 221 -363 416 -682 434 -710 32
-51 157 -254 186 -303 20 -34 325 -533 429 -702 42 -69 157 -257 255 -418
l178 -292 489 0 488 0 1 73 c1 98 1 4639 0 4655 -1 10 -102 12 -488 10 l-488
-3 0 -1557 c1 -1179 -2 -1552 -11 -1540 -10 15 -76 123 -351 572 -21 36 -97
160 -167 275 -71 116 -178 291 -239 390 -60 99 -126 207 -147 240 -44 70 -138
224 -161 263 -16 28 -213 350 -463 757 -78 126 -145 238 -151 247 -5 10 -57
94 -114 188 l-103 170 -489 0 -489 0 -1 -47z"/>
<path d="M279 2233 c0 -283 -6 -888 -14 -1470 l-6 -483 173 0 c95 -1 445 -3
778 -6 333 -3 742 -7 910 -7 l305 -2 3 201 3 200 -83 1 c-609 3 -1664 15
-1670 19 -4 3 -5 278 -2 612 3 334 7 726 8 872 l2 265 -203 3 -203 2 -1 -207z"/>
</g>
</svg>
